<?xml version="1.0" encoding="UTF-8"?> <svg xmlns="http://www.w3.org/2000/svg" width="335" height="344" viewBox="0 0 335 344" fill="none"> <mask id="path-1-inside-1_24_574" fill="white"> <path fill-rule="evenodd" clip-rule="evenodd" d="M294.639 1H40.3614L1 40.009V303.991L40.3614 343H294.639L334 303.991V40.009L294.639 1ZM293.63 0H41.3705H39.8569L0 39.5V41V303V304V304.5L39.8569 344H40.3614H41.3705H293.63H295.143L335 304.5V303V41V39.5L295.143 0H293.63Z"></path> </mask> <path d="M39.8569 39.5V40H40.3569V39.5H39.8569ZM41.3705 41V41.5H41.8705V41H41.3705ZM295.143 304.5V304H294.643V304.5H295.143ZM293.63 303V302.5H293.13V303H293.63ZM39.8569 304.5H40.3569V304H39.8569V304.5ZM41.3705 303H41.8705V302.5H41.3705V303ZM295.143 39.5H294.643V40H295.143V39.5ZM293.63 41H293.13V41.5H293.63V41ZM39.3569 1.5V39.5H40.3569V1.5H39.3569ZM39.8569 39H1.51355V40H39.8569V39ZM40.8705 1V41H41.8705V1H40.8705ZM41.3705 40.5H1V41.5H41.3705V40.5ZM295.643 342.5V304.5H294.643V342.5H295.643ZM295.143 305H333.486V304H295.143V305ZM294.13 343V303H293.13V343H294.13ZM293.63 303.5H334V302.5H293.63V303.5ZM1.51355 305H39.8569V304H1.51355V305ZM39.3569 304.5V342.5H40.3569V304.5H39.3569ZM1 303.5H41.3705V302.5H1V303.5ZM40.8705 303V343H41.8705V303H40.8705ZM333.486 39H295.143V40H333.486V39ZM295.643 39.5V1.5H294.643V39.5H295.643ZM334 40.5H293.63V41.5H334V40.5ZM294.13 41V1H293.13V41H294.13ZM40.3614 1V0H39.9499L39.6575 0.28972L40.3614 1ZM294.639 1L295.342 0.28972L295.05 0H294.639V1ZM1 40.009L0.296081 39.2987L0 39.5921V40.009H1ZM1 303.991H0V304.408L0.296081 304.701L1 303.991ZM40.3614 343L39.6575 343.71L39.9499 344H40.3614V343ZM294.639 343V344H295.05L295.342 343.71L294.639 343ZM334 303.991L334.704 304.701L335 304.408V303.991H334ZM334 40.009H335V39.5921L334.704 39.2987L334 40.009ZM39.8569 0V-1H39.4453L39.153 -0.71028L39.8569 0ZM0 39.5L-0.703919 38.7897L-1 39.0831V39.5H0ZM0 304.5H-1V304.917L-0.703919 305.21L0 304.5ZM39.8569 344L39.153 344.71L39.4453 345H39.8569V344ZM295.143 344V345H295.555L295.847 344.71L295.143 344ZM335 304.5L335.704 305.21L336 304.917V304.5H335ZM335 39.5H336V39.0831L335.704 38.7897L335 39.5ZM295.143 0L295.847 -0.71028L295.555 -1H295.143V0ZM40.3614 2H294.639V0H40.3614V2ZM1.70392 40.7192L41.0654 1.71028L39.6575 0.28972L0.296081 39.2987L1.70392 40.7192ZM2 303.991V40.009H0V303.991H2ZM41.0654 342.29L1.70392 303.281L0.296081 304.701L39.6575 343.71L41.0654 342.29ZM294.639 342H40.3614V344H294.639V342ZM333.296 303.281L293.935 342.29L295.342 343.71L334.704 304.701L333.296 303.281ZM333 40.009V303.991H335V40.009H333ZM293.935 1.71028L333.296 40.7192L334.704 39.2987L295.342 0.28972L293.935 1.71028ZM293.63 -1H41.3705V1H293.63V-1ZM41.3705 -1H39.8569V1H41.3705V-1ZM39.153 -0.71028L-0.703919 38.7897L0.703919 40.2103L40.5608 0.71028L39.153 -0.71028ZM-1 39.5V41H1V39.5H-1ZM-1 41V303H1V41H-1ZM-1 303V304H1V303H-1ZM-1 304V304.5H1V304H-1ZM-0.703919 305.21L39.153 344.71L40.5608 343.29L0.703919 303.79L-0.703919 305.21ZM39.8569 345H40.3614V343H39.8569V345ZM40.3614 345H41.3705V343H40.3614V345ZM41.3705 345H293.63V343H41.3705V345ZM293.63 345H295.143V343H293.63V345ZM295.847 344.71L335.704 305.21L334.296 303.79L294.439 343.29L295.847 344.71ZM336 304.5V303H334V304.5H336ZM336 303V41H334V303H336ZM336 41V39.5H334V41H336ZM294.439 0.71028L334.296 40.2103L335.704 38.7897L295.847 -0.71028L294.439 0.71028ZM295.143 -1H293.63V1H295.143V-1Z" fill="#5B5B5B" mask="url(#path-1-inside-1_24_574)"></path> <path d="M251 343.5L217.5 317H117.5L84 344" stroke="#5B5B5B" stroke-width="0.46696"></path> <path d="M131.5 330.5H201.5" stroke="#5B5B5B"></path> </svg> 