<?xml version="1.0" encoding="UTF-8"?> <svg xmlns="http://www.w3.org/2000/svg" width="689" height="344" viewBox="0 0 689 344" fill="none"> <mask id="path-1-inside-1_24_374" fill="white"> <path fill-rule="evenodd" clip-rule="evenodd" d="M648.5 0H41H39.5L0 39.5V41V165.926V166.221L0.258174 166.364L9.55311 171.5L0.258174 176.636L0 176.779V177.074V303V304.5L39.5 344H41H648H649H649.5L689 304.5V304V303V177.075V176.78L688.742 176.637L679.445 171.5L688.742 166.363L689 166.22V165.925V40.5L688.5 40L688 39.5L649.5 1L649 0.5L648.5 0ZM648 1H40L1 40V165.631L10.8288 171.062L11.6207 171.5L10.8288 171.938L1 177.369V304L40 343H649L688 304V177.37L678.169 171.938L677.377 171.5L678.169 171.062L688 165.63V41L648 1Z"></path> </mask> <path fill-rule="evenodd" clip-rule="evenodd" d="M648.5 0H41H39.5L0 39.5V41V165.926V166.221L0.258174 166.364L9.55311 171.5L0.258174 176.636L0 176.779V177.074V303V304.5L39.5 344H41H648H649H649.5L689 304.5V304V303V177.075V176.78L688.742 176.637L679.445 171.5L688.742 166.363L689 166.22V165.925V40.5L688.5 40L688 39.5L649.5 1L649 0.5L648.5 0ZM648 1H40L1 40V165.631L10.8288 171.062L11.6207 171.5L10.8288 171.938L1 177.369V304L40 343H649L688 304V177.37L678.169 171.938L677.377 171.5L678.169 171.062L688 165.63V41L648 1Z" fill="#FAFAFA"></path> <path d="M39.5 39.5V39.91H39.91V39.5H39.5ZM41 41V41.41H41.41V41H41ZM39.5 304.5H39.91V304.09H39.5V304.5ZM41 303H41.41V302.59H41V303ZM649.5 304.5V304.09H649.09V304.5H649.5ZM648 303V302.59H647.59V303H648ZM649 40H648.59V40.41H649V40ZM647.5 41.5H647.09V41.91H647.5V41.5ZM39.09 1.5V39.5H39.91V1.5H39.09ZM39.5 39.09H1.5V39.91H39.5V39.09ZM40.59 1V41H41.41V1H40.59ZM41 40.59H1V41.41H41V40.59ZM1.5 304.91H39.5V304.09H1.5V304.91ZM39.09 304.5V342.5H39.91V304.5H39.09ZM1 303.41H41V302.59H1V303.41ZM40.59 303V343H41.41V303H40.59ZM649.91 342.5V304.5H649.09V342.5H649.91ZM649.5 304.91H687.5V304.09H649.5V304.91ZM648.41 343V303H647.59V343H648.41ZM648 303.41H688V302.59H648V303.41ZM687 39.59H649V40.41H687V39.59ZM649.41 40V2H648.59V40H649.41ZM688 41.09H647.5V41.91H688V41.09ZM647.91 41.5V1H647.09V41.5H647.91ZM648.5 0L649.08 -0.579828L648.84 -0.82H648.5V0ZM39.5 0V-0.82H39.1603L38.9202 -0.579828L39.5 0ZM0 39.5L-0.579828 38.9202L-0.82 39.1603V39.5H0ZM0 166.221H-0.82V166.705L-0.396611 166.939L0 166.221ZM0.258174 166.364L-0.138437 167.081L-0.13842 167.082L0.258174 166.364ZM9.55311 171.5L9.94971 172.218L11.2485 171.5L9.94971 170.782L9.55311 171.5ZM0.258174 176.636L-0.13842 175.918L-0.138437 175.919L0.258174 176.636ZM0 176.779L-0.396611 176.061L-0.82 176.295V176.779H0ZM0 304.5H-0.82V304.84L-0.579828 305.08L0 304.5ZM39.5 344L38.9202 344.58L39.1603 344.82H39.5V344ZM649.5 344V344.82H649.84L650.08 344.58L649.5 344ZM689 304.5L689.58 305.08L689.82 304.84V304.5H689ZM689 176.78H689.82V176.296L689.397 176.062L689 176.78ZM688.742 176.637L689.138 175.92L688.742 176.637ZM679.445 171.5L679.048 170.782L677.75 171.5L679.048 172.218L679.445 171.5ZM688.742 166.363L689.138 167.08L688.742 166.363ZM689 166.22L689.397 166.938L689.82 166.704V166.22H689ZM689 40.5H689.82V40.1603L689.58 39.9202L689 40.5ZM648 1L648.58 0.420172L648.34 0.18H648V1ZM40 1V0.18H39.6603L39.4202 0.420172L40 1ZM1 40L0.420172 39.4202L0.18 39.6603V40H1ZM1 165.631H0.18V166.115L0.603405 166.349L1 165.631ZM10.8288 171.062L11.2254 170.345H11.2253L10.8288 171.062ZM11.6207 171.5L12.0173 172.218L13.3161 171.5L12.0173 170.782L11.6207 171.5ZM10.8288 171.938L11.2253 172.655H11.2254L10.8288 171.938ZM1 177.369L0.603405 176.651L0.18 176.885V177.369H1ZM1 304H0.18V304.34L0.420172 304.58L1 304ZM40 343L39.4202 343.58L39.6603 343.82H40V343ZM649 343V343.82H649.34L649.58 343.58L649 343ZM688 304L688.58 304.58L688.82 304.34V304H688ZM688 177.37H688.82V176.886L688.397 176.652L688 177.37ZM678.169 171.938L678.566 171.22L678.169 171.938ZM677.377 171.5L676.981 170.782L675.682 171.5L676.981 172.218L677.377 171.5ZM678.169 171.062L678.566 171.78L678.169 171.062ZM688 165.63L688.397 166.348L688.82 166.114V165.63H688ZM688 41H688.82V40.6603L688.58 40.4202L688 41ZM41 0.82H648.5V-0.82H41V0.82ZM39.5 0.82H41V-0.82H39.5V0.82ZM0.579828 40.0798L40.0798 0.579828L38.9202 -0.579828L-0.579828 38.9202L0.579828 40.0798ZM0.82 41V39.5H-0.82V41H0.82ZM0.82 165.926V41H-0.82V165.926H0.82ZM0.82 166.221V165.926H-0.82V166.221H0.82ZM0.654785 165.646L0.396611 165.503L-0.396611 166.939L-0.138437 167.081L0.654785 165.646ZM9.94971 170.782L0.654769 165.646L-0.13842 167.082L9.15652 172.218L9.94971 170.782ZM0.654769 177.354L9.94971 172.218L9.15652 170.782L-0.13842 175.918L0.654769 177.354ZM0.396611 177.497L0.654785 177.354L-0.138437 175.919L-0.396611 176.061L0.396611 177.497ZM0.82 177.074V176.779H-0.82V177.074H0.82ZM0.82 303V177.074H-0.82V303H0.82ZM0.82 304.5V303H-0.82V304.5H0.82ZM40.0798 343.42L0.579828 303.92L-0.579828 305.08L38.9202 344.58L40.0798 343.42ZM41 343.18H39.5V344.82H41V343.18ZM648 343.18H41V344.82H648V343.18ZM649 343.18H648V344.82H649V343.18ZM649.5 343.18H649V344.82H649.5V343.18ZM688.42 303.92L648.92 343.42L650.08 344.58L689.58 305.08L688.42 303.92ZM688.18 304V304.5H689.82V304H688.18ZM688.18 303V304H689.82V303H688.18ZM688.18 177.075V303H689.82V177.075H688.18ZM688.18 176.78V177.075H689.82V176.78H688.18ZM688.345 177.355L688.603 177.498L689.397 176.062L689.138 175.92L688.345 177.355ZM679.048 172.218L688.345 177.355L689.138 175.92L679.842 170.782L679.048 172.218ZM688.345 165.645L679.048 170.782L679.842 172.218L689.138 167.08L688.345 165.645ZM688.603 165.502L688.345 165.645L689.138 167.08L689.397 166.938L688.603 165.502ZM688.18 165.925V166.22H689.82V165.925H688.18ZM688.18 40.5V165.925H689.82V40.5H688.18ZM687.92 40.5798L688.42 41.0798L689.58 39.9202L689.08 39.4202L687.92 40.5798ZM687.42 40.0798L687.92 40.5798L689.08 39.4202L688.58 38.9202L687.42 40.0798ZM648.92 1.57983L687.42 40.0798L688.58 38.9202L650.08 0.420172L648.92 1.57983ZM648.42 1.07983L648.92 1.57983L650.08 0.420172L649.58 -0.0798276L648.42 1.07983ZM647.92 0.579828L648.42 1.07983L649.58 -0.0798276L649.08 -0.579828L647.92 0.579828ZM648 0.18H40V1.82H648V0.18ZM39.4202 0.420172L0.420172 39.4202L1.57983 40.5798L40.5798 1.57983L39.4202 0.420172ZM0.18 40V165.631H1.82V40H0.18ZM0.603405 166.349L10.4322 171.78L11.2253 170.345L1.39659 164.913L0.603405 166.349ZM10.4322 171.78L11.2241 172.218L12.0173 170.782L11.2254 170.345L10.4322 171.78ZM11.2241 170.782L10.4322 171.22L11.2254 172.655L12.0173 172.218L11.2241 170.782ZM10.4322 171.22L0.603405 176.651L1.39659 178.087L11.2253 172.655L10.4322 171.22ZM0.18 177.369V304H1.82V177.369H0.18ZM0.420172 304.58L39.4202 343.58L40.5798 342.42L1.57983 303.42L0.420172 304.58ZM40 343.82H649V342.18H40V343.82ZM649.58 343.58L688.58 304.58L687.42 303.42L648.42 342.42L649.58 343.58ZM688.82 304V177.37H687.18V304H688.82ZM688.397 176.652L678.566 171.22L677.773 172.655L687.603 178.088L688.397 176.652ZM678.566 171.22L677.774 170.782L676.981 172.218L677.773 172.655L678.566 171.22ZM677.774 172.218L678.566 171.78L677.773 170.345L676.981 170.782L677.774 172.218ZM678.566 171.78L688.397 166.348L687.603 164.912L677.773 170.345L678.566 171.78ZM688.82 165.63V41H687.18V165.63H688.82ZM647.42 1.57983L687.42 41.5798L688.58 40.4202L648.58 0.420172L647.42 1.57983Z" fill="#5B5B5B" mask="url(#path-1-inside-1_24_374)"></path> <mask id="path-3-inside-2_24_374" fill="white"> <path fill-rule="evenodd" clip-rule="evenodd" d="M648.5 0H41H39.5L0 39.5V41V165.926V166.221L0.258174 166.364L9.55311 171.5L0.258174 176.636L0 176.779V177.074V303V304.5L39.5 344H41H648H649H649.5L689 304.5V304V303V177.075V176.78L688.742 176.637L679.445 171.5L688.742 166.363L689 166.22V165.925V40.5L688.5 40L688 39.5L649.5 1L649 0.5L648.5 0ZM648 1H40L1 40V165.631L10.8288 171.062L11.6207 171.5L10.8288 171.938L1 177.369V304L40 343H649L688 304V177.37L678.169 171.938L677.377 171.5L678.169 171.062L688 165.63V41L648 1Z"></path> </mask> <path d="M39.5 39.5V40H40V39.5H39.5ZM41 41V41.5H41.5V41H41ZM39.5 304.5H40V304H39.5V304.5ZM41 303H41.5V302.5H41V303ZM649.5 304.5V304H649V304.5H649.5ZM648 303V302.5H647.5V303H648ZM649 40H648.5V40.5H649V40ZM647.5 41.5H647V42H647.5V41.5ZM39 1.5V39.5H40V1.5H39ZM39.5 39H1.5V40H39.5V39ZM40.5 1V41H41.5V1H40.5ZM41 40.5H1V41.5H41V40.5ZM1.5 305H39.5V304H1.5V305ZM39 304.5V342.5H40V304.5H39ZM1 303.5H41V302.5H1V303.5ZM40.5 303V343H41.5V303H40.5ZM650 342.5V304.5H649V342.5H650ZM649.5 305H687.5V304H649.5V305ZM648.5 343V303H647.5V343H648.5ZM648 303.5H688V302.5H648V303.5ZM687 39.5H649V40.5H687V39.5ZM649.5 40V2H648.5V40H649.5ZM688 41H647.5V42H688V41ZM648 41.5V1H647V41.5H648ZM648.5 0L649.207 -0.707107L648.914 -1H648.5V0ZM39.5 0V-1H39.0858L38.7929 -0.707107L39.5 0ZM0 39.5L-0.707107 38.7929L-1 39.0858V39.5H0ZM0 166.221H-1V166.811L-0.483672 167.096L0 166.221ZM0.258174 166.364L-0.225498 167.239L-0.225478 167.239L0.258174 166.364ZM9.55311 171.5L10.0368 172.375L11.6207 171.5L10.0368 170.625L9.55311 171.5ZM0.258174 176.636L-0.225478 175.761L-0.225498 175.761L0.258174 176.636ZM0 176.779L-0.483672 175.904L-1 176.189V176.779H0ZM0 304.5H-1V304.914L-0.707107 305.207L0 304.5ZM39.5 344L38.7929 344.707L39.0858 345H39.5V344ZM649.5 344V345H649.914L650.207 344.707L649.5 344ZM689 304.5L689.707 305.207L690 304.914V304.5H689ZM689 176.78H690V176.19L689.484 175.905L689 176.78ZM688.742 176.637L689.225 175.762L688.742 176.637ZM679.445 171.5L678.961 170.625L677.377 171.5L678.961 172.375L679.445 171.5ZM688.742 166.363L689.225 167.238L688.742 166.363ZM689 166.22L689.484 167.095L690 166.81V166.22H689ZM689 40.5H690V40.0858L689.707 39.7929L689 40.5ZM648 1L648.707 0.292893L648.414 0H648V1ZM40 1V0H39.5858L39.2929 0.292893L40 1ZM1 40L0.292893 39.2929L0 39.5858V40H1ZM1 165.631H0V166.221L0.516348 166.506L1 165.631ZM10.8288 171.062L11.3124 170.187H11.3124L10.8288 171.062ZM11.6207 171.5L12.1044 172.375L13.6883 171.5L12.1044 170.625L11.6207 171.5ZM10.8288 171.938L11.3124 172.813H11.3124L10.8288 171.938ZM1 177.369L0.516348 176.494L0 176.779V177.369H1ZM1 304H0V304.414L0.292893 304.707L1 304ZM40 343L39.2929 343.707L39.5858 344H40V343ZM649 343V344H649.414L649.707 343.707L649 343ZM688 304L688.707 304.707L689 304.414V304H688ZM688 177.37H689V176.78L688.484 176.495L688 177.37ZM678.169 171.938L678.653 171.062L678.169 171.938ZM677.377 171.5L676.894 170.625L675.31 171.5L676.894 172.375L677.377 171.5ZM678.169 171.062L678.653 171.938L678.169 171.062ZM688 165.63L688.484 166.505L689 166.22V165.63H688ZM688 41H689V40.5858L688.707 40.2929L688 41ZM41 1H648.5V-1H41V1ZM39.5 1H41V-1H39.5V1ZM0.707107 40.2071L40.2071 0.707107L38.7929 -0.707107L-0.707107 38.7929L0.707107 40.2071ZM1 41V39.5H-1V41H1ZM1 165.926V41H-1V165.926H1ZM1 166.221V165.926H-1V166.221H1ZM0.741846 165.489L0.483672 165.346L-0.483672 167.096L-0.225498 167.239L0.741846 165.489ZM10.0368 170.625L0.741826 165.489L-0.225478 167.239L9.06946 172.375L10.0368 170.625ZM0.741826 177.511L10.0368 172.375L9.06946 170.625L-0.225478 175.761L0.741826 177.511ZM0.483672 177.654L0.741846 177.511L-0.225498 175.761L-0.483672 175.904L0.483672 177.654ZM1 177.074V176.779H-1V177.074H1ZM1 303V177.074H-1V303H1ZM1 304.5V303H-1V304.5H1ZM40.2071 343.293L0.707107 303.793L-0.707107 305.207L38.7929 344.707L40.2071 343.293ZM41 343H39.5V345H41V343ZM648 343H41V345H648V343ZM649 343H648V345H649V343ZM649.5 343H649V345H649.5V343ZM688.293 303.793L648.793 343.293L650.207 344.707L689.707 305.207L688.293 303.793ZM688 304V304.5H690V304H688ZM688 303V304H690V303H688ZM688 177.075V303H690V177.075H688ZM688 176.78V177.075H690V176.78H688ZM688.258 177.513L688.516 177.655L689.484 175.905L689.225 175.762L688.258 177.513ZM678.961 172.375L688.258 177.513L689.225 175.762L679.929 170.625L678.961 172.375ZM688.258 165.487L678.961 170.625L679.929 172.375L689.225 167.238L688.258 165.487ZM688.516 165.345L688.258 165.487L689.225 167.238L689.484 167.095L688.516 165.345ZM688 165.925V166.22H690V165.925H688ZM688 40.5V165.925H690V40.5H688ZM687.793 40.7071L688.293 41.2071L689.707 39.7929L689.207 39.2929L687.793 40.7071ZM687.293 40.2071L687.793 40.7071L689.207 39.2929L688.707 38.7929L687.293 40.2071ZM648.793 1.70711L687.293 40.2071L688.707 38.7929L650.207 0.292893L648.793 1.70711ZM648.293 1.20711L648.793 1.70711L650.207 0.292893L649.707 -0.207107L648.293 1.20711ZM647.793 0.707107L648.293 1.20711L649.707 -0.207107L649.207 -0.707107L647.793 0.707107ZM648 0H40V2H648V0ZM39.2929 0.292893L0.292893 39.2929L1.70711 40.7071L40.7071 1.70711L39.2929 0.292893ZM0 40V165.631H2V40H0ZM0.516348 166.506L10.3451 171.938L11.3124 170.187L1.48365 164.756L0.516348 166.506ZM10.3451 171.938L11.1371 172.375L12.1044 170.625L11.3124 170.187L10.3451 171.938ZM11.1371 170.625L10.3451 171.062L11.3124 172.813L12.1044 172.375L11.1371 170.625ZM10.3451 171.062L0.516348 176.494L1.48365 178.244L11.3124 172.813L10.3451 171.062ZM0 177.369V304H2V177.369H0ZM0.292893 304.707L39.2929 343.707L40.7071 342.293L1.70711 303.293L0.292893 304.707ZM40 344H649V342H40V344ZM649.707 343.707L688.707 304.707L687.293 303.293L648.293 342.293L649.707 343.707ZM689 304V177.37H687V304H689ZM688.484 176.495L678.653 171.062L677.686 172.813L687.516 178.245L688.484 176.495ZM678.653 171.062L677.861 170.625L676.894 172.375L677.686 172.813L678.653 171.062ZM677.861 172.375L678.653 171.938L677.686 170.187L676.894 170.625L677.861 172.375ZM678.653 171.938L688.484 166.505L687.516 164.755L677.686 170.187L678.653 171.938ZM689 165.63V41H687V165.63H689ZM647.293 1.70711L687.293 41.7071L688.707 40.2929L648.707 0.292893L647.293 1.70711Z" fill="#5B5B5B" mask="url(#path-3-inside-2_24_374)"></path> <path d="M431 0.5L464.5 27L564.5 27L598 0" stroke="#5B5B5B" stroke-width="0.46696"></path> <path d="M479 13.5H549" stroke="#5B5B5B"></path> </svg> 