<?xml version="1.0" encoding="UTF-8"?> <!-- Generator: Adobe Illustrator 26.0.3, SVG Export Plug-In . SVG Version: 6.00 Build 0) --> <svg xmlns="http://www.w3.org/2000/svg" xmlns:xlink="http://www.w3.org/1999/xlink" id="Layer_1" x="0px" y="0px" viewBox="0 0 38 38" style="enable-background:new 0 0 38 38;" xml:space="preserve"> <style type="text/css"> .st0{fill:#E0D7BD;} .st1{fill:#EA0F33;} </style> <circle class="st0" cx="19" cy="19" r="17.5"></circle> <path class="st1" d="M30.6,12.2c-0.9,0.4-1.8,0.6-2.7,0.7c1-0.6,1.7-1.5,2.1-2.6c-0.9,0.6-2,0.9-3,1.2c-0.7-0.8-1.7-1.3-2.7-1.4 c-1-0.2-2.1,0-3,0.5s-1.7,1.3-2.1,2.2c-0.4,1-0.5,2-0.3,3.1c-1.9-0.1-3.7-0.6-5.4-1.4c-1.7-0.9-3.2-2.1-4.4-3.5 c-0.4,0.7-0.6,1.5-0.6,2.4c0,0.8,0.2,1.6,0.6,2.2c0.4,0.7,0.9,1.3,1.6,1.7c-0.8,0-1.5-0.2-2.2-0.6v0.1c0,1.1,0.4,2.2,1.1,3 c0.7,0.9,1.7,1.4,2.7,1.7c-0.7,0.2-1.4,0.2-2.2,0.1c0.3,0.9,0.9,1.8,1.7,2.4s1.8,0.9,2.8,0.9c-1.7,1.3-3.8,2-5.9,2 c-0.4,0-0.8,0-1.1-0.1c2.2,1.4,4.7,2.1,7.3,2.1c8.8,0,13.6-7.3,13.6-13.6c0-0.2,0-0.4,0-0.6C29.2,14,30,13.2,30.6,12.2L30.6,12.2z"></path> </svg> 